# xmcd
#
# Track frame offsets: 
#        150
#        20673
#        43977
#        59926
#        84266
#        113284
#        135796
#        151855
#        178114
#        201648
#        255916
#        289172
#        307804
#        328769
#
# Disc length: 4689 seconds
#
# Revision: 0
# Processed by: cddbd v1.5.2PL0 Copyright (c) Steve Scherf et al.
# Submitted via: ExactAudioCopy v0.99pb5
#
DISCID=be124f0e
DTITLE=Kendrick Lamar - good kid, m.A.A.d city
DYEAR=2012
DGENRE=Hip-Hop
TTITLE0=Sherane a.k.a Master Splinter's Daughter
TTITLE1=Bitch, Don't Kill My Vibe
TTITLE2=Backseat Freestyle
TTITLE3=The Art of Peer Presure
TTITLE4=Money Trees (feat. Jay Rock)
TTITLE5=Poetic Justice (feat. Drake)
TTITLE6=good kid
TTITLE7=m.A.A.d city (feat. MC Eiht)
TTITLE8=Swimming Pools (Drank) (Extended Version)
TTITLE9=Sing About Me, I'm Dying of Thirst
TTITLE10=Real (feat. Anna Wise)
TTITLE11=Compton (feat. Dr. Dre)
TTITLE12=Bitch, Don't Kill My Vibe (Remix) (feat. Jay-Z)
TTITLE13=Bitch, Don't Kill My Vibe (International Remix) (feat. Emeli 
TTITLE13=Sandé)
EXTD=
EXTT0=
EXTT1=
EXTT2=
EXTT3=
EXTT4=
EXTT5=
EXTT6=
EXTT7=
EXTT8=
EXTT9=
EXTT10=
EXTT11=
EXTT12=
EXTT13=
PLAYORDER=
